<?xml version="1.0" standalone="no"?>
<svg xmlns:xlink="http://www.w3.org/1999/xlink" id="wave" style="transform:rotate(180deg); transition: 0.3s" viewBox="0 0 1440 490" version="1.1" xmlns="http://www.w3.org/2000/svg"><defs><linearGradient id="sw-gradient-0" x1="0" x2="0" y1="1" y2="0"><stop stop-color="rgba(0, 0, 0, 1)" offset="0%"/><stop stop-color="rgba(0, 0, 0, 1)" offset="100%"/></linearGradient></defs><path style="transform:translate(0, 0px); opacity:1" fill="url(#sw-gradient-0)" d="M0,196L34.3,212.3C68.6,229,137,261,206,302.2C274.3,343,343,392,411,375.7C480,359,549,278,617,204.2C685.7,131,754,65,823,40.8C891.4,16,960,33,1029,65.3C1097.1,98,1166,147,1234,155.2C1302.9,163,1371,131,1440,163.3C1508.6,196,1577,294,1646,334.8C1714.3,376,1783,359,1851,334.8C1920,310,1989,278,2057,261.3C2125.7,245,2194,245,2263,269.5C2331.4,294,2400,343,2469,334.8C2537.1,327,2606,261,2674,253.2C2742.9,245,2811,294,2880,294C2948.6,294,3017,245,3086,261.3C3154.3,278,3223,359,3291,375.7C3360,392,3429,343,3497,343C3565.7,343,3634,392,3703,416.5C3771.4,441,3840,441,3909,432.8C3977.1,425,4046,408,4114,343C4182.9,278,4251,163,4320,147C4388.6,131,4457,212,4526,228.7C4594.3,245,4663,196,4731,204.2C4800,212,4869,278,4903,310.3L4937.1,343L4937.1,490L4902.9,490C4868.6,490,4800,490,4731,490C4662.9,490,4594,490,4526,490C4457.1,490,4389,490,4320,490C4251.4,490,4183,490,4114,490C4045.7,490,3977,490,3909,490C3840,490,3771,490,3703,490C3634.3,490,3566,490,3497,490C3428.6,490,3360,490,3291,490C3222.9,490,3154,490,3086,490C3017.1,490,2949,490,2880,490C2811.4,490,2743,490,2674,490C2605.7,490,2537,490,2469,490C2400,490,2331,490,2263,490C2194.3,490,2126,490,2057,490C1988.6,490,1920,490,1851,490C1782.9,490,1714,490,1646,490C1577.1,490,1509,490,1440,490C1371.4,490,1303,490,1234,490C1165.7,490,1097,490,1029,490C960,490,891,490,823,490C754.3,490,686,490,617,490C548.6,490,480,490,411,490C342.9,490,274,490,206,490C137.1,490,69,490,34,490L0,490Z"/></svg>